<svg width="1754" height="1028" version="1.1" xmlns="http://www.w3.org/2000/svg" desc="Created with imagetracer.js version 1.2.6" ><path fill="rgb(2,63,2)" stroke="rgb(2,63,2)" stroke-width="0" opacity="0.996078431372549" d="M 227.5 1 L 401.5 1 L 402.5 2 L 478.5 2 L 479.5 3 L 1574.5 3 L 1575.5 4 L 1588.5 4 L 1589.5 5 L 1598.5 5 L 1599.5 6 L 1617.5 8 L 1651.5 18 Q 1685.8 32.2 1709 57.5 Q 1727.5 77 1738 104.5 L 1747 135.5 L 1749 152.5 L 1750 153.5 L 1750 160.5 L 1751 161.5 L 1751 170.5 L 1752 171.5 L 1752 186.5 L 1753 187.5 L 1753 707.5 L 1752 708.5 L 1752 721.5 L 1751 722.5 L 1750 738.5 L 1747 754.5 L 1737 785.5 Q 1723 817 1698.5 838 Q 1677.2 857.2 1647.5 868 L 1623.5 875 L 1600.5 879 L 1593.5 879 L 1592.5 880 L 1563.5 881 L 1562.5 882 L 1212 882.5 L 1211.5 1028 L 1091 1027.5 L 1090.5 882 L 175.5 882 L 174.5 881 L 162.5 881 L 161.5 880 L 153.5 880 L 136.5 877 L 119.5 873 L 96.5 865 Q 67 852 47 829.5 Q 21.4 802.1 10 760.5 L 6 742.5 L 4 721.5 L 3 720.5 L 2 686.5 L 1 685.5 L 1 664.5 L 2 663.5 L 2 626.5 L 3 625.5 L 3 249.5 L 2 248.5 L 2 229.5 L 1 228.5 L 0 181.5 L 1 180.5 L 1 162.5 L 2 161.5 L 3 146.5 L 7 128.5 L 14 108.5 Q 30.1 70.6 59.5 46 Q 88.8 21.3 131.5 10 L 156.5 5 L 173.5 4 L 174.5 3 L 226.5 2 L 227.5 1 Z M 216 41 L 215 42 L 171 43 L 170 44 L 156 44 L 155 45 L 140 46 Q 109 53 89 71 Q 65 90 52 119 L 42 150 L 40 172 L 39 173 L 39 185 L 38 186 L 38 247 L 39 248 L 39 273 L 40 274 L 40 306 L 41 307 L 41 648 L 40 649 L 40 700 L 41 701 L 41 716 L 42 717 L 44 738 Q 50 772 69 795 Q 88 818 118 830 L 133 835 L 148 838 L 163 839 L 164 840 L 185 840 L 186 841 L 1091 841 L 1091 711 L 1041 740 L 1014 752 L 970 764 L 947 767 L 946 768 L 939 768 L 938 769 L 914 770 L 913 771 L 882 771 L 881 770 L 856 769 L 855 768 L 848 768 L 847 767 L 829 765 L 790 756 Q 728 738 680 707 L 678 708 Q 686 736 703 757 L 580 757 L 578 756 L 573 731 L 563 701 L 558 678 L 552 680 L 535 690 L 483 726 Q 461 739 437 748 L 397 760 L 365 766 L 342 768 L 341 769 L 329 769 L 328 770 L 279 770 L 278 769 L 267 769 L 266 768 L 245 766 L 218 760 L 191 751 L 167 740 Q 145 729 129 714 Q 101 690 86 655 L 77 627 L 74 610 L 74 602 L 73 601 L 73 574 L 74 573 L 75 558 L 79 540 L 85 522 Q 97 492 117 470 Q 137 447 164 431 Q 195 412 234 401 L 266 393 L 299 387 L 335 383 L 336 382 L 344 382 L 345 381 L 353 381 L 354 380 L 362 380 L 363 379 L 371 379 L 372 378 L 380 378 L 381 377 L 423 373 L 424 372 L 444 370 L 467 365 L 502 360 L 524 355 L 544 347 Q 550 343 552 335 L 552 324 L 550 314 L 550 306 L 549 305 L 549 296 L 548 295 L 548 288 L 545 271 Q 540 247 527 232 Q 508 209 478 198 L 440 187 L 417 184 L 416 183 L 409 183 L 408 182 L 397 182 L 396 181 L 354 181 L 353 182 L 343 182 L 335 184 L 329 184 L 307 189 Q 270 199 247 222 Q 232 236 222 255 Q 213 269 209 288 L 202 299 Q 198 303 192 304 L 180 304 L 159 300 L 121 296 L 98 292 L 91 290 L 100 261 L 112 231 Q 126 200 147 177 Q 183 136 240 117 L 275 107 L 301 102 L 322 100 L 323 99 L 331 99 L 332 98 L 356 97 L 357 96 L 376 96 L 377 95 L 450 95 L 451 96 L 464 96 L 465 97 L 481 98 L 514 104 Q 568 117 606 148 Q 626 166 641 190 L 655 183 L 687 156 L 712 139 L 755 116 Q 777 106 803 100 L 837 94 L 859 93 L 860 92 L 898 92 L 899 93 L 922 94 L 923 95 L 953 99 L 981 106 Q 1004 113 1025 123 L 1044 134 L 1086 163 L 1091 165 L 1091 108 L 1203 107 L 1204 182 L 1225 167 L 1271 130 L 1298 113 Q 1313 104 1333 99 L 1354 95 L 1374 94 L 1375 93 L 1417 93 L 1418 94 L 1429 94 L 1430 95 L 1438 95 L 1466 100 L 1484 105 Q 1538 123 1576 157 Q 1625 201 1652 267 L 1665 303 L 1673 334 L 1678 361 L 1679 374 L 1680 375 L 1681 395 L 1682 396 L 1682 416 L 1683 417 L 1682 459 L 1681 460 L 1681 470 L 1680 471 L 1678 494 L 1668 541 L 1658 572 Q 1634 636 1592 682 Q 1555 723 1501 747 L 1468 759 L 1453 763 L 1433 767 L 1419 768 L 1418 769 L 1408 769 L 1407 770 L 1368 770 L 1367 769 L 1358 769 L 1332 764 L 1314 758 Q 1287 747 1265 732 L 1214 695 L 1211 696 L 1211 840 L 1213 841 L 1581 841 L 1582 840 L 1595 840 L 1596 839 L 1615 837 L 1633 832 Q 1654 824 1670 811 Q 1689 794 1701 770 L 1710 743 L 1713 728 L 1714 712 L 1715 711 L 1715 698 L 1716 697 L 1716 197 L 1715 196 L 1715 180 L 1714 179 L 1714 170 L 1712 162 L 1712 156 L 1706 131 Q 1698 105 1683 88 Q 1667 69 1644 57 L 1626 50 L 1614 47 L 1596 45 L 1595 44 L 1582 44 L 1581 43 L 1542 43 L 1541 44 L 444 44 L 443 43 L 352 42 L 351 41 L 216 41 Z M 1386 177 L 1385 178 L 1369 178 L 1368 179 L 1356 180 L 1333 186 Q 1301 197 1279 217 Q 1241 251 1221 303 L 1211 334 L 1205 360 L 1202 385 L 1201 386 L 1201 395 L 1200 396 L 1199 433 L 1198 434 Q 1197 439 1199 441 L 1199 466 L 1200 467 L 1200 478 L 1201 479 L 1203 503 L 1204 504 L 1205 517 L 1209 538 L 1213 553 Q 1228 596 1256 627 Q 1281 654 1317 670 L 1344 679 L 1361 682 L 1372 682 L 1373 683 L 1388 683 L 1389 682 L 1407 681 L 1436 674 Q 1468 663 1492 642 Q 1529 609 1548 558 L 1556 534 L 1562 509 L 1565 485 L 1566 484 L 1566 476 L 1567 475 L 1568 447 L 1569 446 L 1568 401 L 1567 400 L 1565 373 L 1559 340 L 1552 314 Q 1537 264 1506 232 Q 1484 208 1455 193 Q 1439 185 1421 181 L 1404 178 L 1388 178 L 1386 177 Z M 876 181 L 875 182 L 854 183 L 838 186 L 806 196 Q 772 210 748 233 Q 724 255 710 286 L 698 319 L 691 357 L 692 370 L 1070 370 L 1070 354 L 1069 353 L 1068 338 L 1060 306 Q 1047 268 1023 242 Q 998 213 961 196 L 938 188 L 920 184 L 907 183 L 906 182 L 894 182 L 893 181 L 876 181 Z M 546 432 L 507 440 L 434 459 L 391 468 L 321 477 L 286 484 L 259 493 Q 243 500 231 511 Q 202 534 195 578 L 196 603 L 201 620 Q 209 637 221 650 Q 236 665 259 674 L 291 682 L 311 684 L 312 685 L 322 685 L 323 686 L 357 686 L 358 685 L 368 685 L 397 680 L 412 676 Q 461 661 495 630 Q 520 607 535 573 L 545 540 L 547 522 L 548 521 L 549 493 L 550 492 L 550 447 L 549 446 L 549 433 L 546 432 Z M 683 461 L 683 479 L 684 480 L 684 488 L 685 489 L 687 507 L 691 525 L 700 553 Q 714 588 737 616 Q 765 648 807 667 L 842 678 L 859 681 L 866 681 L 867 682 L 884 682 L 885 683 L 918 681 L 935 678 L 960 671 Q 997 657 1025 633 Q 1052 609 1067 573 L 1076 542 L 1079 525 L 1080 510 L 1081 509 L 1081 498 L 1082 497 L 1083 462 L 683 461 Z " /><path fill="rgb(254,254,254)" stroke="rgb(254,254,254)" stroke-width="0" opacity="0" d="M 0.5 0 L 1754 0.5 L 1753.5 1028 L 1212 1027.5 L 1212.5 882 L 1562.5 882 L 1563.5 881 L 1592.5 880 L 1593.5 879 L 1600.5 879 L 1623.5 875 L 1657.5 864 Q 1690.8 849.3 1713 823.5 Q 1731 803.5 1741 775.5 L 1749 744.5 L 1751 722.5 L 1752 721.5 L 1752 708.5 L 1753 707.5 L 1753 187.5 L 1752 186.5 L 1752 171.5 L 1751 170.5 L 1751 161.5 L 1750 160.5 L 1748 140.5 L 1738 104.5 Q 1724.9 71.1 1700.5 49 Q 1678 28 1646.5 16 L 1617.5 8 L 1599.5 6 L 1598.5 5 L 1589.5 5 L 1588.5 4 L 1575.5 4 L 1574.5 3 L 479.5 3 L 478.5 2 L 402.5 2 L 401.5 1 L 227.5 1 L 226.5 2 L 174.5 3 L 173.5 4 L 156.5 5 L 131.5 10 L 109.5 17 Q 66.9 33.4 40 65.5 Q 21.6 87.1 11 116.5 L 3 146.5 L 2 161.5 L 1 162.5 L 0.5 181 L 0.5 0 Z " /><path fill="rgb(254,254,254)" stroke="rgb(254,254,254)" stroke-width="0" opacity="0" d="M 215.5 41 L 350.5 41 L 351.5 42 L 442.5 43 L 443.5 44 L 1540.5 44 L 1541.5 43 L 1580.5 43 L 1581.5 44 L 1594.5 44 L 1595.5 45 L 1613.5 47 L 1625.5 50 L 1643.5 57 Q 1666.9 68.6 1683 87.5 Q 1698.1 105.4 1706 130.5 L 1712 155.5 L 1712 161.5 L 1714 169.5 L 1714 178.5 L 1715 179.5 L 1715 195.5 L 1716 196.5 L 1716 696.5 L 1715 697.5 L 1715 710.5 L 1714 711.5 L 1713 727.5 L 1710 742.5 L 1701 769.5 Q 1689.5 794.5 1669.5 811 Q 1653.9 824.4 1632.5 832 L 1614.5 837 L 1595.5 839 L 1594.5 840 L 1581.5 840 L 1580.5 841 L 1212.5 841 L 1211 839.5 L 1211 695.5 L 1213.5 695 L 1264.5 732 Q 1286.8 747.2 1313.5 758 L 1331.5 764 L 1357.5 769 L 1366.5 769 L 1367.5 770 L 1406.5 770 L 1407.5 769 L 1417.5 769 L 1418.5 768 L 1432.5 767 L 1452.5 763 L 1467.5 759 L 1500.5 747 Q 1554.7 722.7 1592 681.5 Q 1634.3 635.8 1658 571.5 L 1668 540.5 L 1678 493.5 L 1680 470.5 L 1681 469.5 L 1681 459.5 L 1682 458.5 L 1683 416.5 L 1682 415.5 L 1682 395.5 L 1681 394.5 L 1680 374.5 L 1679 373.5 L 1678 360.5 L 1673 333.5 L 1665 302.5 L 1652 266.5 Q 1624.7 200.8 1575.5 157 Q 1537.8 122.7 1483.5 105 L 1465.5 100 L 1437.5 95 L 1429.5 95 L 1428.5 94 L 1417.5 94 L 1416.5 93 L 1374.5 93 L 1373.5 94 L 1353.5 95 L 1332.5 99 Q 1313.3 104.3 1297.5 113 L 1270.5 130 L 1224.5 167 L 1203.5 182 L 1202.5 107 L 1091 107.5 L 1090.5 165 L 1085.5 163 L 1043.5 134 L 1024.5 123 Q 1004 113 980.5 106 L 952.5 99 L 922.5 95 L 921.5 94 L 898.5 93 L 897.5 92 L 859.5 92 L 858.5 93 L 836.5 94 L 802.5 100 Q 776.7 106.2 754.5 116 L 711.5 139 L 686.5 156 L 654.5 183 L 640.5 190 Q 626.4 165.6 605.5 148 Q 568.4 117.1 513.5 104 L 480.5 98 L 464.5 97 L 463.5 96 L 450.5 96 L 449.5 95 L 376.5 95 L 375.5 96 L 356.5 96 L 355.5 97 L 331.5 98 L 330.5 99 L 322.5 99 L 321.5 100 L 300.5 102 L 274.5 107 L 239.5 117 Q 183 136.5 147 176.5 Q 125.8 199.8 112 230.5 L 100 260.5 L 91 289.5 L 97.5 292 L 120.5 296 L 158.5 300 L 179.5 304 L 191.5 304 Q 198.3 302.8 202 298.5 L 209 287.5 Q 213.4 268.9 222 254.5 Q 232.2 236.2 246.5 222 Q 270.2 199.2 306.5 189 L 328.5 184 L 334.5 184 L 342.5 182 L 352.5 182 L 353.5 181 L 395.5 181 L 396.5 182 L 407.5 182 L 408.5 183 L 415.5 183 L 416.5 184 L 439.5 187 L 477.5 198 Q 507.8 209.2 527 231.5 Q 540.1 246.9 545 270.5 L 548 287.5 L 548 294.5 L 549 295.5 L 549 304.5 L 550 305.5 L 550 313.5 L 552 323.5 L 552 334.5 Q 549.9 342.9 543.5 347 L 523.5 355 L 501.5 360 L 466.5 365 L 443.5 370 L 423.5 372 L 422.5 373 L 380.5 377 L 379.5 378 L 371.5 378 L 370.5 379 L 362.5 379 L 361.5 380 L 353.5 380 L 352.5 381 L 344.5 381 L 343.5 382 L 335.5 382 L 334.5 383 L 298.5 387 L 265.5 393 L 233.5 401 Q 194.6 412.1 163.5 431 Q 137.3 447.3 117 469.5 Q 97.1 491.6 85 521.5 L 79 539.5 L 75 557.5 L 74 572.5 L 73 573.5 L 73 600.5 L 74 601.5 L 74 609.5 L 77 626.5 L 86 654.5 Q 101.3 690.2 128.5 714 Q 145.4 729.1 166.5 740 L 190.5 751 L 217.5 760 L 244.5 766 L 265.5 768 L 266.5 769 L 277.5 769 L 278.5 770 L 327.5 770 L 328.5 769 L 340.5 769 L 341.5 768 L 364.5 766 L 396.5 760 L 436.5 748 Q 461.2 738.7 482.5 726 L 534.5 690 L 551.5 680 L 557.5 678 L 563 700.5 L 573 730.5 L 578 755.5 L 579.5 757 L 703 756.5 Q 686.2 736.3 678 707.5 L 679.5 707 Q 728 738 789.5 756 L 828.5 765 L 846.5 767 L 847.5 768 L 854.5 768 L 855.5 769 L 880.5 770 L 881.5 771 L 912.5 771 L 913.5 770 L 937.5 769 L 938.5 768 L 945.5 768 L 946.5 767 L 969.5 764 L 1013.5 752 L 1040.5 740 L 1090.5 711 L 1091 840.5 L 185.5 841 L 184.5 840 L 163.5 840 L 162.5 839 L 147.5 838 L 132.5 835 L 117.5 830 Q 87.8 817.8 69 794.5 Q 50.5 772 44 737.5 L 42 716.5 L 41 715.5 L 41 700.5 L 40 699.5 L 40 648.5 L 41 647.5 L 41 306.5 L 40 305.5 L 40 273.5 L 39 272.5 L 39 247.5 L 38 246.5 L 38 185.5 L 39 184.5 L 39 172.5 L 40 171.5 L 42 149.5 L 52 118.5 Q 65.5 90 88.5 71 Q 108.6 53.1 139.5 46 L 154.5 45 L 155.5 44 L 169.5 44 L 170.5 43 L 214.5 42 L 215.5 41 Z " /><path fill="rgb(254,254,254)" stroke="rgb(254,254,254)" stroke-width="0" opacity="0" d="M 1385.5 177 L 1387.5 178 L 1403.5 178 L 1420.5 181 Q 1439.1 185.4 1454.5 193 Q 1484.4 208.1 1506 231.5 Q 1537.2 264.3 1552 313.5 L 1559 339.5 L 1565 372.5 L 1567 399.5 L 1568 400.5 L 1569 445.5 L 1568 446.5 L 1567 474.5 L 1566 475.5 L 1566 483.5 L 1565 484.5 L 1562 508.5 L 1556 533.5 L 1548 557.5 Q 1528.9 608.9 1491.5 642 Q 1468.2 662.7 1435.5 674 L 1406.5 681 L 1388.5 682 L 1387.5 683 L 1372.5 683 L 1371.5 682 L 1360.5 682 L 1343.5 679 L 1316.5 670 Q 1280.8 653.8 1256 626.5 Q 1227.9 596.1 1213 552.5 L 1209 537.5 L 1205 516.5 L 1204 503.5 L 1203 502.5 L 1201 478.5 L 1200 477.5 L 1200 466.5 L 1199 465.5 L 1199 440.5 Q 1196.5 439 1198 433.5 L 1199 432.5 L 1200 395.5 L 1201 394.5 L 1201 385.5 L 1202 384.5 L 1205 359.5 L 1211 333.5 L 1221 302.5 Q 1240.6 250.6 1278.5 217 Q 1301 197 1332.5 186 L 1355.5 180 L 1367.5 179 L 1368.5 178 L 1384.5 178 L 1385.5 177 Z " /><path fill="rgb(254,254,254)" stroke="rgb(254,254,254)" stroke-width="0" opacity="0" d="M 875.5 181 L 892.5 181 L 893.5 182 L 905.5 182 L 906.5 183 L 919.5 184 L 937.5 188 L 960.5 196 Q 997.9 212.6 1023 241.5 Q 1046.7 268.3 1060 305.5 L 1068 337.5 L 1069 352.5 L 1070 353.5 L 1070 369.5 L 691.5 370 L 691 356.5 L 698 318.5 L 710 285.5 Q 724.4 254.9 747.5 233 Q 771.9 209.9 805.5 196 L 837.5 186 L 853.5 183 L 874.5 182 L 875.5 181 Z " /><path fill="rgb(254,254,254)" stroke="rgb(254,254,254)" stroke-width="0" opacity="0" d="M 0.5 202 L 2 248.5 L 3 249.5 L 3 625.5 L 2 626.5 L 1 685.5 L 2 686.5 L 2 709.5 L 3 710.5 L 3 720.5 L 4 721.5 L 5 736.5 L 8 752.5 L 15 776.5 Q 29 814.5 56.5 839 Q 78.2 859.3 109.5 870 L 141.5 878 L 146.5 878 L 153.5 880 L 161.5 880 L 162.5 881 L 174.5 881 L 175.5 882 L 1091 882.5 L 1090.5 1028 L 0 1027.5 L 0.5 202 Z " /><path fill="rgb(254,254,254)" stroke="rgb(254,254,254)" stroke-width="0" opacity="0" d="M 545.5 432 L 549 432.5 L 549 445.5 L 550 446.5 L 550 491.5 L 549 492.5 L 548 520.5 L 547 521.5 L 545 539.5 L 535 572.5 Q 520.1 606.6 494.5 630 Q 460.8 660.8 411.5 676 L 396.5 680 L 367.5 685 L 357.5 685 L 356.5 686 L 322.5 686 L 321.5 685 L 311.5 685 L 310.5 684 L 290.5 682 L 258.5 674 Q 236 665.5 221 649.5 Q 208.6 636.9 201 619.5 L 196 602.5 L 195 577.5 Q 202.4 533.9 230.5 511 Q 242.8 500.3 258.5 493 L 285.5 484 L 320.5 477 L 390.5 468 L 433.5 459 L 506.5 440 L 545.5 432 Z " /><path fill="rgb(254,254,254)" stroke="rgb(254,254,254)" stroke-width="0" opacity="0" d="M 682.5 461 L 1083 461.5 L 1082 496.5 L 1081 497.5 L 1081 508.5 L 1080 509.5 L 1079 524.5 L 1076 541.5 L 1067 572.5 Q 1051.8 608.8 1024.5 633 Q 997.4 657.4 959.5 671 L 934.5 678 L 917.5 681 L 884.5 683 L 883.5 682 L 866.5 682 L 865.5 681 L 858.5 681 L 841.5 678 L 806.5 667 Q 764.5 648.5 737 615.5 Q 714 588.5 700 552.5 L 691 524.5 L 687 506.5 L 685 488.5 L 684 487.5 L 684 479.5 L 683 478.5 L 682.5 461 Z " /></svg>