<svg width="343" height="351" version="1.1" xmlns="http://www.w3.org/2000/svg" desc="Created with imagetracer.js version 1.2.6" ><path fill="rgb(15,68,120)" stroke="rgb(15,68,120)" stroke-width="0" opacity="1" d="M 0.5 0 L 343 0.5 L 343 290.5 L 341.5 292 L 1.5 292 L 0 290.5 L 0.5 0 Z M 22 16 L 21 137 L 36 137 L 37 88 L 42 75 Q 46 67 56 65 Q 67 63 72 68 L 77 77 L 78 88 L 79 89 L 80 137 L 94 137 L 94 82 L 92 72 L 88 64 Q 84 57 76 54 L 65 53 L 64 52 L 52 54 L 42 60 L 37 66 L 36 17 L 22 16 Z M 144 52 L 143 53 L 131 54 L 118 61 L 107 74 L 103 85 Q 105 90 102 92 Q 102 114 113 126 L 124 134 L 140 139 L 151 139 L 163 136 L 163 128 L 162 122 L 153 126 Q 138 128 132 123 Q 122 117 119 105 L 119 88 L 125 75 Q 130 67 140 65 L 152 65 L 161 68 L 162 66 L 162 58 L 163 57 L 159 54 L 144 52 Z M 219 52 L 204 55 L 196 60 L 191 66 L 190 55 L 177 54 L 176 171 L 191 171 L 192 126 L 192 128 L 201 135 L 214 139 Q 231 140 240 132 Q 246 126 250 118 L 254 101 Q 255 77 245 65 Q 240 57 231 54 L 220 53 L 219 52 Z M 304 52 L 303 53 L 291 54 L 279 60 L 267 74 L 264 81 L 262 91 L 263 107 L 272 125 L 284 134 L 300 139 L 311 139 L 323 136 L 322 122 L 313 126 Q 295 128 288 120 L 281 111 L 278 99 Q 278 84 284 76 Q 289 68 300 65 L 311 65 L 321 68 Q 323 64 322 56 L 314 53 Q 307 54 304 52 Z M 4 186 L 3 288 L 5 289 L 340 289 L 340 187 L 4 186 Z " /><path fill="rgb(15,68,120)" stroke="rgb(15,68,120)" stroke-width="0" opacity="1" d="M 210.5 65 L 220.5 65 Q 228.6 67.9 233 74.5 L 237 84.5 L 238 99.5 L 235 111.5 L 226.5 123 Q 221.3 127.8 209.5 126 Q 201.2 123.9 197 117.5 Q 192.5 111.5 191 102.5 L 191 89.5 L 193 81.5 L 200.5 70 L 210.5 65 Z " /><path fill="rgb(15,68,120)" stroke="rgb(15,68,120)" stroke-width="0" opacity="1" d="M 316.5 202 L 323 202.5 L 322.5 257 L 317 256.5 L 316.5 252 Q 312.2 258.2 301.5 258 Q 294.1 256.9 291 251.5 L 288 245.5 L 287 234.5 L 290 225.5 L 295.5 220 L 305.5 218 Q 312.5 219 315.5 224 L 316.5 202 Z M 302 224 L 300 225 L 295 232 Q 293 244 298 250 L 302 252 L 311 251 Q 315 248 316 243 Q 318 233 314 229 Q 312 222 302 224 Z " /><path fill="rgb(15,68,120)" stroke="rgb(15,68,120)" stroke-width="0" opacity="1" d="M 124.5 203 L 132 203.5 Q 133.5 209.5 130.5 211 L 124 210.5 L 124.5 203 Z " /><path fill="rgb(15,68,120)" stroke="rgb(15,68,120)" stroke-width="0" opacity="1" d="M 173.5 209 L 177 209.5 L 177.5 219 L 187 219.5 Q 188 224 185.5 225 L 177 225.5 L 177 248.5 L 180.5 252 Q 185.2 253.2 186.5 251 L 187 256.5 L 179.5 258 L 175.5 257 L 171 252.5 L 170 249.5 L 169.5 225 L 162 224.5 L 162.5 219 L 170 218.5 L 170.5 210 L 173.5 209 Z " /><path fill="rgb(15,68,120)" stroke="rgb(15,68,120)" stroke-width="0" opacity="1" d="M 36.5 218 L 42 219.5 L 41.5 225 L 36.5 224 L 30 229.5 L 28 235.5 L 27.5 257 Q 22.3 258.3 21 255.5 L 21.5 219 L 28 219.5 L 28.5 224 Q 30.7 219.3 36.5 218 Z " /><path fill="rgb(15,68,120)" stroke="rgb(15,68,120)" stroke-width="0" opacity="1" d="M 59.5 218 Q 69.7 217.8 74 223.5 Q 78.2 228.8 78 238.5 L 51 239.5 Q 51 248.5 57.5 251 Q 60.7 253.3 67.5 252 L 74.5 249 L 75 254.5 L 66.5 258 L 60.5 258 L 51.5 255 L 47 250.5 Q 42.6 244.4 44 232.5 Q 45.9 224.8 51.5 221 L 59.5 218 Z M 58 224 L 55 226 L 51 233 L 52 234 L 71 234 L 69 228 Q 67 222 58 224 Z " /><path fill="rgb(15,68,120)" stroke="rgb(15,68,120)" stroke-width="0" opacity="1" d="M 96.5 218 L 104.5 219 L 109 222.5 L 109.5 224 L 111 223.5 L 111.5 219 L 117 219.5 L 117 259.5 Q 115.4 266.4 110.5 270 Q 104.3 274.8 91.5 273 L 84 270.5 L 85.5 265 L 94.5 268 L 100.5 268 L 108 263.5 Q 111.3 259.8 110 251.5 L 105.5 255 L 99.5 257 L 94.5 257 L 86 252.5 Q 80.5 247 81 235.5 Q 82.5 226.1 88.5 221 L 96.5 218 Z M 96 224 L 93 226 L 89 232 L 88 237 Q 88 243 91 248 L 96 251 L 105 250 L 110 243 Q 111 233 108 229 Q 106 222 96 224 Z " /><path fill="rgb(15,68,120)" stroke="rgb(15,68,120)" stroke-width="0" opacity="1" d="M 148.5 218 L 157.5 219 L 159 220.5 L 157.5 225 L 147.5 224 L 145 225.5 L 144 229.5 L 146.5 233 Q 155.4 235.1 160 241.5 L 161 247.5 Q 159.8 253.3 155.5 256 L 149.5 258 L 144.5 258 L 139.5 257 L 137 254.5 L 138 251.5 L 137.5 250 Q 141.5 253 149.5 252 L 153 249.5 Q 154.3 243.3 150.5 242 L 139 235.5 Q 136.3 233.2 137 227.5 L 142.5 220 L 148.5 218 Z " /><path fill="rgb(15,68,120)" stroke="rgb(15,68,120)" stroke-width="0" opacity="1" d="M 205.5 218 L 213.5 219 L 220 224.5 L 223 232.5 L 223 238.5 L 197.5 239 L 196 240.5 Q 197.1 247.9 202.5 251 L 213.5 252 L 219.5 249 L 220 254.5 L 216.5 257 L 205.5 258 L 198.5 256 L 193 251.5 L 189 241.5 L 189 234.5 L 191 227.5 L 196.5 221 L 205.5 218 Z M 204 224 L 202 225 Q 197 227 197 233 L 197 234 L 216 234 L 215 229 Q 213 223 204 224 Z " /><path fill="rgb(15,68,120)" stroke="rgb(15,68,120)" stroke-width="0" opacity="1" d="M 243.5 218 L 248 219.5 L 247.5 225 L 242.5 224 L 236 229.5 L 234 235.5 L 233.5 257 L 228 256.5 L 228.5 219 L 234 219.5 L 234.5 224 L 239.5 219 L 243.5 218 Z " /><path fill="rgb(15,68,120)" stroke="rgb(15,68,120)" stroke-width="0" opacity="1" d="M 265.5 218 Q 276.7 217.8 281 224.5 L 284 233.5 L 284 238.5 L 258.5 239 L 257 240.5 Q 258.1 247.9 263.5 251 L 274.5 252 L 280.5 249 L 281 254.5 L 277.5 257 L 266.5 258 L 259.5 256 L 254 251.5 L 251 246.5 L 250 233.5 Q 251.5 225 257.5 221 L 265.5 218 Z M 265 224 L 263 225 Q 258 227 258 233 L 258 234 L 277 234 L 276 229 Q 274 223 265 224 Z " /><path fill="rgb(15,68,120)" stroke="rgb(15,68,120)" stroke-width="0" opacity="1" d="M 125.5 219 L 131 219.5 L 130.5 257 L 125 256.5 L 125.5 219 Z " /><path fill="rgb(15,68,120)" stroke="rgb(15,68,120)" stroke-width="0" opacity="1" d="M 122.5 307 L 125 307.5 L 125.5 321 L 127 320.5 L 127.5 319 L 136.5 318 L 140 320.5 L 141 322.5 L 141 340.5 L 138.5 341 L 138 326.5 L 134.5 321 Q 128.3 319.8 127 323.5 L 125 328.5 L 124.5 341 L 122 340.5 L 122.5 307 Z " /><path fill="rgb(15,68,120)" stroke="rgb(15,68,120)" stroke-width="0" opacity="1" d="M 249.5 307 L 253 307.5 L 253.5 327 L 255 326.5 L 262.5 318 L 267 318.5 L 264.5 322 L 258 327.5 L 269 340.5 L 263.5 341 L 254.5 330 L 253 330.5 L 252.5 341 L 249 340.5 L 249.5 307 Z " /><path fill="rgb(15,68,120)" stroke="rgb(15,68,120)" stroke-width="0" opacity="1" d="M 1.5 318 L 5 318.5 L 9 334.5 L 10.5 336 L 16.5 318 L 21 318.5 L 26.5 336 L 28 335.5 L 31 322.5 L 33.5 318 L 36 318.5 L 33 330.5 L 28.5 341 L 24 340.5 L 18.5 322 L 12.5 341 Q 8 342 7 339.5 L 1 320.5 L 1.5 318 Z " /><path fill="rgb(15,68,120)" stroke="rgb(15,68,120)" stroke-width="0" opacity="1" d="M 38.5 318 Q 42.3 317.3 43 319.5 L 47.5 336 L 49 335.5 Q 50 325 54.5 318 L 59 318.5 L 64.5 337 L 70.5 318 L 74 318.5 L 66.5 341 L 62 340.5 L 57 323.5 L 55.5 322 L 49.5 341 L 45 340.5 L 38.5 318 Z " /><path fill="rgb(15,68,120)" stroke="rgb(15,68,120)" stroke-width="0" opacity="1" d="M 76.5 318 L 80 318.5 L 84.5 336 L 86 335.5 L 91.5 318 L 96 318.5 L 101.5 336 L 103 335.5 Q 104 325 108.5 318 L 111 318.5 L 108 330.5 L 103.5 341 L 99 340.5 L 93.5 322 L 87.5 341 Q 83 342 82 339.5 L 76 320.5 L 76.5 318 Z " /><path fill="rgb(15,68,120)" stroke="rgb(15,68,120)" stroke-width="0" opacity="1" d="M 152.5 318 L 161 318.5 L 160.5 321 Q 151.8 319.3 150 324.5 L 149 332.5 L 153.5 338 Q 159 339.5 160.5 337 L 161 340.5 L 152.5 341 L 147 337.5 Q 143.7 333.8 145 325.5 L 148.5 320 L 152.5 318 Z " /><path fill="rgb(15,68,120)" stroke="rgb(15,68,120)" stroke-width="0" opacity="1" d="M 166.5 318 L 169 318.5 L 169.5 321 L 171 320.5 L 171.5 319 Q 174.7 316.7 181.5 318 Q 188.6 321.4 187 333.5 L 181.5 341 Q 174 342.5 171 339.5 L 170.5 338 L 169.5 350 L 166 349.5 L 166.5 318 Z M 174 321 L 170 326 Q 169 332 171 336 Q 172 339 179 338 L 183 333 L 182 324 Q 180 320 174 321 Z " /><path fill="rgb(15,68,120)" stroke="rgb(15,68,120)" stroke-width="0" opacity="1" d="M 197.5 318 L 207 318.5 L 206.5 321 Q 199.7 319.7 197 322.5 Q 193.4 325.4 195 333.5 L 197.5 337 L 205.5 338 L 207 337.5 L 206.5 341 Q 195 343 192 336.5 Q 189.4 333.6 190 327.5 Q 191.3 321.8 195.5 319 L 197.5 318 Z " /><path fill="rgb(15,68,120)" stroke="rgb(15,68,120)" stroke-width="0" opacity="1" d="M 224.5 318 L 228 319.5 L 228 335.5 L 230.5 338 Q 237.8 339.3 239 334.5 L 240.5 318 L 244 318.5 L 243.5 341 L 240 340.5 L 239.5 338 L 238 338.5 L 237.5 340 L 228.5 341 L 225 338.5 L 224 336.5 L 224.5 318 Z " /><path fill="rgb(15,68,120)" stroke="rgb(15,68,120)" stroke-width="0" opacity="1" d="M 287.5 318 Q 299.3 316.2 302 323.5 L 303 332.5 L 297.5 340 Q 294.3 342.3 287.5 341 L 281 335.5 L 280 325.5 L 285.5 319 L 287.5 318 Z M 289 321 L 284 328 L 285 335 Q 287 340 295 338 L 299 332 L 298 325 Q 297 320 289 321 Z " /><path fill="rgb(15,68,120)" stroke="rgb(15,68,120)" stroke-width="0" opacity="1" d="M 307.5 318 L 311 318.5 L 311.5 321 Q 312.7 316.8 319.5 318 L 320 320.5 Q 313.6 320.1 312 324.5 L 310.5 341 L 307 340.5 L 307.5 318 Z " /><path fill="rgb(15,68,120)" stroke="rgb(15,68,120)" stroke-width="0" opacity="1" d="M 327.5 318 Q 336.5 316 338.5 321 L 339.5 318 L 343 318.5 L 343 342.5 L 339.5 349 Q 335.5 352 327.5 351 L 323 349.5 L 323.5 346 L 333.5 348 L 338 344.5 L 339 338.5 L 337.5 338 Q 335.6 342.1 328.5 341 L 323 336.5 Q 320.2 333.8 321 327.5 Q 322.5 321 327.5 318 Z M 330 321 L 326 326 Q 325 332 327 336 L 331 338 L 336 337 L 339 333 L 338 325 Q 337 320 330 321 Z " /><path fill="rgb(15,68,120)" stroke="rgb(15,68,120)" stroke-width="0" opacity="1" d="M 209.5 327 L 220 327.5 L 219.5 330 L 208 329.5 L 209.5 327 Z " /><path fill="rgb(15,68,120)" stroke="rgb(15,68,120)" stroke-width="0" opacity="1" d="M 112.5 336 L 117 336.5 L 116.5 341 L 112 340.5 L 112.5 336 Z " /><path fill="rgb(15,68,120)" stroke="rgb(15,68,120)" stroke-width="0" opacity="1" d="M 273.5 336 Q 277.3 335.3 278 337.5 L 276.5 341 L 273 340.5 L 273.5 336 Z " /><path fill="rgb(250,251,252)" stroke="rgb(250,251,252)" stroke-width="0" opacity="0.996078431372549" d="M 21.5 16 L 36 16.5 L 36.5 66 L 41.5 60 L 51.5 54 L 63.5 52 L 64.5 53 L 75.5 54 Q 83.6 56.9 88 63.5 L 92 71.5 L 94 81.5 L 94 136.5 L 79.5 137 L 79 88.5 L 78 87.5 L 77 76.5 L 71.5 68 Q 66.7 63.3 55.5 65 Q 46.4 67.4 42 74.5 L 37 87.5 L 35.5 137 L 21 136.5 L 21.5 16 Z " /><path fill="rgb(250,251,252)" stroke="rgb(250,251,252)" stroke-width="0" opacity="0.996078431372549" d="M 143.5 52 L 158.5 54 L 163 56.5 L 162 57.5 L 162 65.5 L 160.5 68 L 151.5 65 L 139.5 65 Q 129.9 67.4 125 74.5 L 119 87.5 L 119 104.5 Q 122.3 116.7 131.5 123 Q 138.4 128.1 152.5 126 L 161.5 122 L 163 127.5 L 163 135.5 L 150.5 139 L 139.5 139 L 123.5 134 L 113 125.5 Q 101.7 114.3 102 91.5 Q 104.5 90 103 84.5 L 107 73.5 L 117.5 61 L 130.5 54 L 142.5 53 L 143.5 52 Z " /><path fill="rgb(250,251,252)" stroke="rgb(250,251,252)" stroke-width="0" opacity="0.996078431372549" d="M 218.5 52 L 219.5 53 L 230.5 54 Q 239.5 57.5 245 64.5 Q 255.1 76.9 254 100.5 L 250 117.5 Q 246.3 126.3 239.5 132 Q 230.9 139.9 213.5 139 L 200.5 135 L 192 127.5 L 191.5 126 L 190.5 171 L 176 170.5 L 176.5 54 L 190 54.5 L 190.5 66 L 195.5 60 L 203.5 55 L 218.5 52 Z M 211 65 L 201 70 L 193 82 L 191 90 L 191 103 Q 192 112 197 118 Q 201 124 210 126 Q 221 128 227 123 L 235 112 L 238 100 L 237 85 L 233 75 Q 229 68 221 65 L 211 65 Z " /><path fill="rgb(250,251,252)" stroke="rgb(250,251,252)" stroke-width="0" opacity="0.996078431372549" d="M 303.5 52 Q 306.7 54.3 313.5 53 L 322 55.5 Q 323.4 63.9 320.5 68 L 310.5 65 L 299.5 65 Q 289.3 67.8 284 75.5 Q 277.9 83.9 278 98.5 L 281 110.5 L 287.5 120 Q 294.5 128.5 312.5 126 L 321.5 122 L 323 135.5 L 310.5 139 L 299.5 139 L 283.5 134 L 272 124.5 L 263 106.5 L 262 90.5 L 264 80.5 L 267 73.5 L 278.5 60 L 290.5 54 L 302.5 53 L 303.5 52 Z " /><path fill="rgb(41,131,171)" stroke="rgb(41,131,171)" stroke-width="0" opacity="0" d="M 3.5 186 L 340 186.5 L 339.5 289 L 4.5 289 L 3 287.5 L 3.5 186 Z M 317 202 L 316 224 Q 313 219 306 218 L 296 220 L 290 226 L 287 235 L 288 246 L 291 252 Q 294 257 302 258 Q 312 258 317 252 L 317 257 L 323 257 L 323 203 L 317 202 Z M 125 203 L 124 211 L 131 211 Q 133 210 132 204 L 125 203 Z M 174 209 L 171 210 L 170 219 L 163 219 L 162 225 L 170 225 L 170 250 L 171 253 L 176 257 L 180 258 L 187 257 L 187 251 Q 185 253 181 252 L 177 249 L 177 226 L 186 225 Q 188 224 187 220 L 178 219 L 177 210 L 174 209 Z M 37 218 Q 31 219 29 224 L 28 220 L 22 219 L 21 256 Q 22 258 28 257 L 28 236 L 30 230 L 37 224 L 42 225 L 42 220 L 37 218 Z M 60 218 L 52 221 Q 46 225 44 233 Q 43 244 47 251 L 52 255 L 61 258 L 67 258 L 75 255 L 75 249 L 68 252 Q 61 253 58 251 Q 51 248 51 240 L 78 239 Q 78 229 74 224 Q 70 218 60 218 Z M 97 218 L 89 221 Q 83 226 81 236 Q 81 247 86 253 L 95 257 L 100 257 L 106 255 L 110 252 Q 111 260 108 264 L 101 268 L 95 268 L 86 265 L 84 271 L 92 273 Q 104 275 111 270 Q 115 266 117 260 L 117 220 L 112 219 L 111 224 L 110 224 L 109 223 L 105 219 L 97 218 Z M 149 218 L 143 220 L 137 228 Q 136 233 139 236 L 151 242 Q 154 243 153 250 L 150 252 Q 142 253 138 250 L 138 252 L 137 255 L 140 257 L 145 258 L 150 258 L 156 256 Q 160 253 161 248 L 160 242 Q 155 235 147 233 L 144 230 L 145 226 L 148 224 L 158 225 L 159 221 L 158 219 L 149 218 Z M 206 218 L 197 221 L 191 228 L 189 235 L 189 242 L 193 252 L 199 256 L 206 258 L 217 257 L 220 255 L 220 249 L 214 252 L 203 251 Q 197 248 196 241 L 198 239 L 223 239 L 223 233 L 220 225 L 214 219 L 206 218 Z M 244 218 L 240 219 L 235 224 L 234 220 L 229 219 L 228 257 L 234 257 L 234 236 L 236 230 L 243 224 L 248 225 L 248 220 L 244 218 Z M 266 218 L 258 221 Q 251 225 250 234 L 251 247 L 254 252 L 260 256 L 267 258 L 278 257 L 281 255 L 281 249 L 275 252 L 264 251 Q 258 248 257 241 L 259 239 L 284 239 L 284 234 L 281 225 Q 277 218 266 218 Z M 126 219 L 125 257 L 131 257 L 131 220 L 126 219 Z " /><path fill="rgb(41,131,171)" stroke="rgb(41,131,171)" stroke-width="0" opacity="0" d="M 57.5 224 Q 66.5 222.5 69 227.5 L 71 233.5 L 51.5 234 L 51 232.5 L 54.5 226 L 57.5 224 Z " /><path fill="rgb(41,131,171)" stroke="rgb(41,131,171)" stroke-width="0" opacity="0" d="M 95.5 224 Q 105.6 222.4 108 228.5 Q 111.3 233.2 110 242.5 L 104.5 250 L 95.5 251 L 91 247.5 Q 88 243.5 88 236.5 L 89 231.5 L 92.5 226 L 95.5 224 Z " /><path fill="rgb(41,131,171)" stroke="rgb(41,131,171)" stroke-width="0" opacity="0" d="M 203.5 224 Q 212.8 222.7 215 228.5 L 216 233.5 L 196.5 234 L 197 232.5 Q 197.5 227 201.5 225 L 203.5 224 Z " /><path fill="rgb(41,131,171)" stroke="rgb(41,131,171)" stroke-width="0" opacity="0" d="M 264.5 224 Q 273.9 222.7 276 228.5 L 277 233.5 L 257.5 234 L 258 232.5 Q 258.5 227 262.5 225 L 264.5 224 Z " /><path fill="rgb(41,131,171)" stroke="rgb(41,131,171)" stroke-width="0" opacity="0" d="M 301.5 224 Q 311.6 222.4 314 228.5 Q 317.7 232.8 316 242.5 Q 314.8 248.3 310.5 251 L 301.5 252 L 298 249.5 Q 293 244 295 231.5 L 299.5 225 L 301.5 224 Z " /><path fill="rgb(41,131,171)" stroke="rgb(41,131,171)" stroke-width="0" opacity="0" d="M 0.5 291 L 1.5 292 L 341.5 292 L 343 291.5 L 342.5 318 L 339 318.5 L 338.5 321 Q 336.5 316 327.5 318 Q 320.6 321.6 321 332.5 L 326.5 340 L 333.5 341 L 338.5 338 L 339 342.5 L 335.5 347 L 329.5 348 L 323.5 346 L 323 349.5 L 327 350.5 L 0.5 351 L 0.5 291 Z M 123 307 L 122 341 L 125 341 L 125 329 L 127 324 Q 128 320 135 321 L 138 327 L 139 341 L 141 341 L 141 323 L 140 321 L 137 318 L 128 319 L 127 321 L 126 321 L 125 308 L 123 307 Z M 250 307 L 249 341 L 253 341 L 253 331 L 255 330 L 264 341 L 269 341 L 258 328 L 265 322 L 267 319 L 263 318 L 255 327 L 254 327 L 253 308 L 250 307 Z M 2 318 L 1 321 L 7 340 Q 8 342 13 341 L 19 322 L 24 341 L 29 341 L 33 331 L 36 319 L 34 318 L 31 323 L 28 336 L 27 336 L 21 319 L 17 318 L 11 336 L 9 335 L 5 319 L 2 318 Z M 39 318 L 45 341 L 50 341 L 56 322 L 57 324 L 62 341 L 67 341 L 74 319 L 71 318 L 65 337 L 59 319 L 55 318 Q 50 325 49 336 L 48 336 L 43 320 Q 42 317 39 318 Z M 77 318 L 76 321 L 82 340 Q 83 342 88 341 L 94 322 L 99 341 L 104 341 L 108 331 L 111 319 L 109 318 Q 104 325 103 336 L 102 336 L 96 319 L 92 318 L 86 336 L 85 336 L 80 319 L 77 318 Z M 153 318 L 149 320 L 145 326 Q 144 334 147 338 L 153 341 L 161 341 L 161 337 Q 159 340 154 338 L 149 333 L 150 325 Q 152 319 161 321 L 161 319 L 153 318 Z M 167 318 L 166 350 L 170 350 L 171 338 L 171 340 Q 174 343 182 341 L 187 334 Q 189 321 182 318 Q 175 317 172 319 L 171 321 L 170 321 L 169 319 L 167 318 Z M 198 318 L 196 319 Q 191 322 190 328 Q 189 334 192 337 Q 195 343 207 341 L 207 338 L 206 338 L 198 337 L 195 334 Q 193 325 197 323 Q 200 320 207 321 L 207 319 L 198 318 Z M 225 318 L 224 337 L 225 339 L 229 341 L 238 340 L 238 339 L 240 338 L 240 341 L 244 341 L 244 319 L 241 318 L 239 335 Q 238 339 231 338 L 228 336 L 228 320 L 225 318 Z M 288 318 L 286 319 L 280 326 L 281 336 L 288 341 Q 294 342 298 340 L 303 333 L 302 324 Q 299 316 288 318 Z M 308 318 L 307 341 L 311 341 L 312 325 Q 314 320 320 321 L 320 318 Q 313 317 312 321 L 311 319 L 308 318 Z M 210 327 L 208 330 L 220 330 L 220 328 L 210 327 Z M 113 336 L 112 341 L 117 341 L 117 337 L 113 336 Z M 274 336 L 273 341 L 277 341 L 278 338 Q 277 335 274 336 Z " /><path fill="rgb(41,131,171)" stroke="rgb(41,131,171)" stroke-width="0" opacity="0" d="M 173.5 321 Q 180.5 319.5 182 323.5 L 183 332.5 L 178.5 338 Q 172.3 339.3 171 335.5 Q 168.7 332.3 170 325.5 L 173.5 321 Z " /><path fill="rgb(41,131,171)" stroke="rgb(41,131,171)" stroke-width="0" opacity="0" d="M 288.5 321 Q 296.5 319.5 298 324.5 L 299 331.5 L 294.5 338 Q 286.5 339.5 285 334.5 L 284 327.5 L 288.5 321 Z " /><path fill="rgb(41,131,171)" stroke="rgb(41,131,171)" stroke-width="0" opacity="0" d="M 329.5 321 Q 336.8 319.8 338 324.5 L 339 332.5 L 335.5 337 L 330.5 338 L 327 335.5 Q 324.7 332.3 326 325.5 L 329.5 321 Z " /><path fill="rgb(41,131,171)" stroke="rgb(41,131,171)" stroke-width="0" opacity="0" d="M 342.5 343 L 343 350.5 L 335.5 351 L 335.5 350 L 341 347.5 L 342.5 343 Z " /></svg>